<svg width="32" height="28" viewBox="0 0 32 28" fill="none" xmlns="http://www.w3.org/2000/svg">
<g clip-path="url(#clip0_6730_2379)">
<path d="M20.0259 19.8823C20.3367 20.2449 20.735 20.9321 20.8918 21.4102C21.0969 22.0355 21.0806 23.0441 21.0964 23.7374C21.1208 24.7834 21.094 25.851 21.0706 26.8914C21.0209 27.013 20.2903 27.2947 20.1282 27.3538C17.2857 28.3836 13.6734 28.1141 10.861 27.0325C10.7893 27.0052 10.6831 26.9784 10.6468 26.8919C10.5899 26.7575 10.6176 25.7071 10.6214 25.4667C10.6616 23.1227 10.5282 20.5645 12.5206 19.2034C14.2605 18.0147 18.5269 18.1335 20.0259 19.8823Z" fill="#187356"/>
<path d="M11.2732 19.3374C10.3365 20.4301 9.98702 21.5943 9.85888 23.1261C9.83975 23.3548 9.9153 24.1252 9.76468 24.244C9.64754 24.3366 7.7154 23.9199 7.41895 23.8518C6.70127 23.6867 5.97594 23.5116 5.29029 23.2115L5.2793 18.2848C5.74261 17.0715 6.21835 16.059 7.24443 15.3896C8.42304 14.621 9.67623 14.7744 10.9839 14.732C11.1828 14.7258 11.8766 14.5869 12.0129 14.6985C12.1788 15.4443 12.3031 16.1527 12.6139 16.8422C12.7057 17.0464 13.0777 17.6042 13.0638 17.7671C13.0456 17.9768 12.2567 18.4008 12.0626 18.5553C11.7781 18.7818 11.5166 19.0523 11.2737 19.3363L11.2732 19.3374Z" fill="#187356"/>
<path d="M27.0726 20.5872C26.997 19.5826 27.0597 18.4864 26.747 17.5365C26.2272 15.9561 25.0572 14.8773 23.7734 14.1984C24.3185 13.3238 24.8311 12.313 24.832 11.1951L24.9037 11.1114C25.1581 11.0445 25.4235 11.1538 25.6602 11.1616C27.2452 11.2135 28.4821 10.8972 29.8415 12.0848C31.611 13.63 31.4346 15.7704 31.4733 18.1021C31.481 18.574 31.4838 19.0571 31.448 19.5273C31.3916 19.6361 30.4908 19.929 30.3129 19.9881C29.261 20.339 28.1732 20.595 27.0726 20.5872Z" fill="#187356"/>
<path d="M6.65696 11.2715C6.59385 12.4435 7.18291 13.3862 7.70551 14.3066C6.65553 14.9091 5.77337 15.6047 5.13601 16.7772C4.45037 18.0379 4.46806 19.25 4.4102 20.6998C2.92272 20.7132 1.41134 20.3188 0.0577375 19.6132C-0.0206767 19.5239 0.00514264 18.4367 0.00944586 18.2147C0.0304838 17.1627 -0.00537631 15.2371 0.289155 14.3016C0.691745 13.0231 1.89282 11.6436 3.05947 11.3976C4.25194 11.2932 5.45875 11.2782 6.65744 11.2715H6.65696Z" fill="#187356"/>
<path d="M22.0514 24.2688C21.8955 21.9611 21.6072 19.9619 19.8577 18.6002C19.6755 18.4585 18.7455 17.9057 18.7087 17.7618C18.6676 17.6023 18.987 17.3011 19.0783 17.1477C19.3002 16.7761 19.5569 16.1235 19.6387 15.6817C19.7252 15.2137 19.5483 14.8645 20.0877 14.7552C20.5462 14.662 21.5364 14.6971 22.026 14.7306C24.7552 14.9192 26.3823 16.8046 26.3077 20.055L26.2824 23.1538C26.0615 23.5771 22.6376 24.3218 22.0509 24.2683L22.0514 24.2688Z" fill="#187356"/>
<path d="M15.3958 0.0202536C17.9185 -0.26591 19.7344 2.52935 18.8719 5.30285C18.0887 7.82031 15.1682 8.58565 13.4929 6.72698C11.4345 4.4438 12.5968 0.338214 15.3958 0.0202536Z" fill="#187356"/>
<path d="M15.682 11.0655C19.7342 10.6985 20.0727 17.7784 16.2883 18.1878C12.0917 18.6425 11.6494 11.4309 15.682 11.0655Z" fill="#187356"/>
<path d="M11.995 13.9874C11.6646 14.3304 10.6505 14.4811 10.2178 14.4509C7.58616 14.268 6.42094 10.2505 8.42385 8.23119C10.0113 6.63135 12.4125 7.19476 13.2769 9.43219C13.8602 10.9422 13.2956 11.0939 12.7194 12.2386C12.5387 12.5978 12.1543 13.8223 11.9955 13.9874H11.995Z" fill="#187356"/>
<path d="M6.54622 10.6415C6.48407 10.7056 6.31337 10.7681 6.22731 10.7994C3.04197 11.958 0.804298 7.14337 3.38288 4.57961C5.08409 2.88829 8.04853 4.16794 8.35644 6.7501C8.39804 7.10098 8.35214 7.16903 8.18718 7.45073C7.8348 8.05151 7.34758 8.38788 7.03058 9.11361C6.88188 9.45444 6.67867 10.5043 6.5467 10.6409L6.54622 10.6415Z" fill="#187356"/>
<path d="M28.3465 9.80178C27.5992 10.6541 26.204 11.0619 25.2071 10.687C24.6998 10.4963 24.7739 9.86314 24.5955 9.33656C24.4789 8.99238 24.2561 8.58015 24.0591 8.28896C23.3849 7.2899 22.7786 7.26591 23.383 5.76815C24.3354 3.40688 27.0971 2.92492 28.5315 4.96768C29.506 6.35554 29.4563 8.53664 28.347 9.80178H28.3465Z" fill="#187356"/>
<path d="M20.7015 7.327C23.1343 7.00736 24.8628 10.0414 23.7583 12.5666C23.1176 14.0315 21.5263 14.8169 20.1861 14.3126C19.5588 14.0767 19.7591 13.9077 19.5875 13.3376C19.435 12.8316 19.1294 12.2269 18.8464 11.8035C18.6298 11.4789 17.9948 10.887 17.9848 10.5172C17.9685 9.91642 18.4519 8.89504 18.7981 8.4538C19.2494 7.87813 20.0379 7.41402 20.7011 7.327H20.7015Z" fill="#187356"/>
<path d="M8.9098 6.80115C8.83999 5.98059 8.51916 5.20354 8.06732 4.5771C7.9081 4.35621 7.24684 3.70857 7.20142 3.51891C7.12779 3.21267 7.57819 2.45124 7.75749 2.20858C8.59423 1.07731 9.78574 0.796728 11.0088 1.14537C11.2479 1.21342 11.8451 1.51297 11.9656 1.75786C12.0736 1.9782 11.89 2.83781 11.868 3.15577C11.8341 3.65223 11.7815 4.46554 11.8723 4.93467C11.9464 5.31957 12.5278 6.47203 12.4184 6.7515C12.2434 7.19776 11.4836 6.72082 11.1623 6.65556C10.3896 6.49937 9.66429 6.68512 8.9098 6.80115Z" fill="#187356"/>
<path d="M21.4201 0.969323C22.5571 0.880071 23.9088 1.72796 24.3415 2.99367C24.5046 3.47061 24.1182 3.513 23.8433 3.79582C23.4431 4.20694 23.0405 4.8172 22.8081 5.37725C22.6327 5.79952 22.5705 6.28539 22.3381 6.67085C22.2334 6.7456 21.7232 6.59331 21.5516 6.58438C21.0472 6.55761 20.5274 6.59666 20.034 6.71492C19.7462 6.78409 19.3264 7.13496 19.1714 6.68368C19.0132 6.22236 19.3192 5.77163 19.4354 5.34713C19.6434 4.58681 19.6964 3.79191 19.6008 3.00259C19.5606 2.67125 19.3938 2.37169 19.4908 2.00911C19.63 1.48922 20.9831 1.00391 21.4201 0.969323Z" fill="#187356"/>
<path d="M13.671 8.15949C14.874 8.20412 16.1496 8.06075 17.3445 8.14554C17.4535 8.15335 17.9168 8.20244 17.935 8.29169C17.8403 8.78648 17.5893 9.21713 17.4832 9.70689C17.4401 9.90436 17.5047 10.1381 17.3665 10.2965C16.9792 10.4293 16.6182 10.1911 16.2415 10.1571C15.6008 10.0996 14.9481 10.3372 14.3289 10.4962C14.2715 10.4934 14.2237 10.4962 14.185 10.4365C14.141 10.3685 14.0258 9.59366 13.9727 9.40176C13.8728 9.04141 13.7006 8.66209 13.5605 8.31847L13.6705 8.16005L13.671 8.15949Z" fill="#187356"/>
</g>
<defs>
<clipPath id="clip0_6730_2379">
<rect width="31.4776" height="28" fill="white"/>
</clipPath>
</defs>
</svg>
