<svg width="28" height="28" viewBox="0 0 28 28" fill="none" xmlns="http://www.w3.org/2000/svg">
<g clip-path="url(#clip0_6730_2351)">
<path d="M10.211 0.0886429C12.6094 0.209389 15.2959 -0.142666 17.6617 0.0697309C19.1888 0.207207 19.9869 1.34629 20.0928 2.7967C20.2103 4.41805 20.2016 6.91734 20.0964 8.54523C19.9375 11.0133 18.2979 11.5173 16.0816 11.3573C15.6209 11.6294 14.664 12.9736 14.2381 13.0725C13.9639 13.1365 13.7564 13.1016 13.5279 12.943C13.0121 12.5844 12.4912 11.7821 11.9667 11.3806C10.3314 11.4388 8.44807 11.2948 8.0106 9.38246C7.72259 8.12626 7.81182 4.2813 7.90251 2.8658C7.99827 1.37975 8.68893 0.34832 10.211 0.0886429ZM11.2963 3.57719C10.2821 3.74812 10.343 5.11415 11.358 5.22617C13.0012 5.08215 15.0456 5.44366 16.6409 5.22617C17.7031 5.08142 17.7009 3.7103 16.6409 3.56628C15.0333 3.34661 12.9533 3.7023 11.2963 3.57719ZM11.371 6.19723C10.2741 6.35726 10.367 7.66 11.2238 7.83458C11.6518 7.92186 13.5649 7.90804 14.0299 7.84476C14.9397 7.72111 15.0768 6.55874 14.3071 6.26997C13.8943 6.11504 11.8665 6.12449 11.371 6.19723Z" fill="#187356"/>
<path d="M18.2794 27.9996H9.71875V15.5249C9.71875 15.2776 10.2251 14.999 10.4769 14.9757C12.7339 14.7691 15.3013 15.1387 17.5917 14.9772C17.7948 14.9183 18.2794 15.394 18.2794 15.5242V27.9988V27.9996Z" fill="#187356"/>
<path d="M6.09191 18.3984H7.36151C7.57045 18.3984 8.05072 18.8109 8.05072 19.0167V27.9999H6.70857C6.55767 27.9999 6.09191 27.5904 6.09191 27.4544V22.7628H3.7341C2.22799 22.7628 0.652246 21.4346 0.236545 20.014C-0.0674326 18.9774 -0.0239037 15.5442 0.0682326 14.3585C0.235094 12.2084 2.40211 10.798 4.40009 11.7661C6.86963 12.9634 5.90039 16.2025 6.09264 18.3977L6.09191 18.3984Z" fill="#187356"/>
<path d="M21.908 22.763V27.4547C21.908 27.5907 21.4423 28.0002 21.2914 28.0002H19.9492V19.017C19.9492 18.8111 20.4295 18.3987 20.6384 18.3987H21.908C22.1003 16.2034 21.131 12.9637 23.6006 11.7671C25.5986 10.799 27.7656 12.2094 27.9324 14.3595C28.0246 15.5452 28.0674 18.9777 27.7641 20.0149C27.3484 21.4355 25.7719 22.7637 24.2666 22.7637H21.9087L21.908 22.763Z" fill="#187356"/>
<path d="M2.88672 4.89002C6.8007 4.61579 7.18085 10.5891 3.37135 10.9055C-0.645649 11.2394 -1.12011 5.17079 2.88672 4.89002Z" fill="#187356"/>
<path d="M24.7221 4.89009C28.676 4.61441 29.014 10.6059 25.2067 10.9056C21.1788 11.2227 20.761 5.16649 24.7221 4.89009Z" fill="#187356"/>
</g>
<defs>
<clipPath id="clip0_6730_2351">
<rect width="28" height="28" fill="white"/>
</clipPath>
</defs>
</svg>
