<svg width="62" height="55" viewBox="0 0 62 55" fill="none" xmlns="http://www.w3.org/2000/svg">
<g clip-path="url(#clip0_7471_18666)">
<path d="M39.3381 39.0503C39.9486 39.7625 40.7309 41.1125 41.039 42.0515C41.4419 43.2798 41.4099 45.2609 41.4409 46.6229C41.4888 48.6774 41.4362 50.7746 41.3902 52.8181C41.2925 53.057 39.8575 53.6103 39.5391 53.7265C33.9556 55.7492 26.8599 55.22 21.3356 53.0953C21.1947 53.0416 20.9862 52.9891 20.9148 52.8192C20.8031 52.5551 20.8576 50.4919 20.8651 50.0196C20.944 45.4154 20.6819 40.3904 24.5956 37.7168C28.0133 35.3818 36.3937 35.6152 39.3381 39.0503Z" fill="white"/>
<path d="M22.1453 37.986C20.3054 40.1326 19.6189 42.4193 19.3672 45.4282C19.3296 45.8775 19.478 47.3907 19.1822 47.624C18.9521 47.8059 15.1568 46.9874 14.5745 46.8538C13.1647 46.5294 11.74 46.1854 10.3932 45.5959L10.3716 35.9184C11.2817 33.5352 12.2162 31.5465 14.2317 30.2316C16.5468 28.7217 19.0084 29.023 21.5771 28.9397C21.9678 28.9277 23.3306 28.6548 23.5983 28.874C23.9242 30.339 24.1683 31.7305 24.7788 33.0849C24.9591 33.4859 25.6898 34.5816 25.6626 34.9016C25.6269 35.3136 24.0772 36.1463 23.6959 36.4498C23.1371 36.8947 22.6234 37.4261 22.1463 37.9838L22.1453 37.986Z" fill="white"/>
<path d="M53.1772 40.4368C53.0288 38.4634 53.1519 36.3103 52.5376 34.4442C51.5167 31.3401 49.2185 29.2209 46.6968 27.8874C47.7675 26.1693 48.7743 24.1839 48.7762 21.988L48.917 21.8237C49.4167 21.6922 49.9379 21.9069 50.4028 21.9223C53.5163 22.0242 55.946 21.4029 58.6161 23.7357C62.092 26.7709 61.7455 30.9752 61.8216 35.5553C61.8366 36.4823 61.8422 37.4312 61.7718 38.3549C61.661 38.5686 59.8915 39.1438 59.5421 39.26C57.4759 39.9492 55.3392 40.4521 53.1772 40.4368Z" fill="white"/>
<path d="M13.0743 22.1406C12.9503 24.4427 14.1074 26.2945 15.1339 28.1025C13.0715 29.2859 11.3387 30.6522 10.0867 32.9554C8.73991 35.4318 8.77466 37.8128 8.66101 40.6606C5.73918 40.6869 2.77039 39.9122 0.11153 38.5261C-0.0424982 38.3508 0.00821825 36.2152 0.016671 35.7791C0.0579955 33.7126 -0.012444 29.9301 0.5661 28.0926C1.3569 25.5812 3.71616 22.8715 6.00779 22.3883C8.35014 22.1834 10.7207 22.1538 13.0752 22.1406H13.0743Z" fill="white"/>
<path d="M43.3167 47.6723C43.0105 43.1393 42.4442 39.2122 39.0077 36.5376C38.6498 36.2593 36.8231 35.1734 36.7508 34.8907C36.67 34.5773 37.2974 33.9856 37.4768 33.6843C37.9126 32.9545 38.4169 31.6725 38.5775 30.8047C38.7475 29.8854 38.4 29.1995 39.4594 28.9847C40.3601 28.8017 42.3052 28.8708 43.2669 28.9365C48.6278 29.3069 51.8239 33.0104 51.6774 39.3952L51.6276 45.482C51.1937 46.3136 44.4682 47.7764 43.3158 47.6712L43.3167 47.6723Z" fill="white"/>
<path d="M30.2411 0.0397839C35.1962 -0.522324 38.7633 4.96836 37.069 10.4163C35.5306 15.3613 29.794 16.8647 26.5031 13.2137C22.4598 8.7289 24.743 0.664348 30.2411 0.0397839Z" fill="white"/>
<path d="M30.8057 21.738C38.7654 21.017 39.4303 34.924 31.9966 35.7283C23.7533 36.6213 22.8846 22.4557 30.8057 21.738Z" fill="white"/>
<path d="M23.5632 27.4768C22.9142 28.1507 20.9222 28.4465 20.0722 28.3873C14.9029 28.0279 12.6141 20.1365 16.5484 16.17C19.6665 13.0274 24.3831 14.1341 26.0812 18.5291C27.227 21.4952 26.1178 21.7933 24.9861 24.0417C24.6311 24.7473 23.876 27.1525 23.5642 27.4768H23.5632Z" fill="white"/>
<path d="M12.8577 20.9044C12.7357 21.0304 12.4004 21.1531 12.2313 21.2144C5.97439 23.4903 1.57896 14.0331 6.64404 8.99709C9.98569 5.67485 15.8087 8.18845 16.4135 13.2606C16.4952 13.9498 16.4051 14.0835 16.0811 14.6368C15.3889 15.8169 14.4318 16.4776 13.8092 17.9032C13.5171 18.5726 13.1179 20.6348 12.8587 20.9033L12.8577 20.9044Z" fill="white"/>
<path d="M55.6802 19.2561C54.2123 20.9304 51.4717 21.7313 49.5135 20.995C48.517 20.6203 48.6626 19.3766 48.3123 18.3422C48.0831 17.6662 47.6454 16.8564 47.2585 16.2845C45.9342 14.322 44.7433 14.2749 45.9305 11.3329C47.8013 6.69467 53.2261 5.74796 56.0437 9.76052C57.9578 12.4867 57.8601 16.771 55.6812 19.2561H55.6802Z" fill="white"/>
<path d="M40.6654 14.3895C45.444 13.7616 48.8392 19.7213 46.6697 24.6816C45.4112 27.559 42.2855 29.1018 39.653 28.1113C38.4207 27.6478 38.8143 27.3158 38.4771 26.1959C38.1775 25.2021 37.5773 24.0143 37.0213 23.1827C36.5959 22.545 35.3486 21.3824 35.3289 20.6559C35.297 19.4758 36.2465 17.4696 36.9265 16.6029C37.8131 15.4721 39.3618 14.5604 40.6645 14.3895H40.6654Z" fill="white"/>
<path d="M17.501 13.3621C17.3638 11.7503 16.7336 10.2239 15.8461 8.99343C15.5334 8.55952 14.2345 7.28738 14.1452 6.91483C14.0006 6.31328 14.8853 4.81761 15.2375 4.34097C16.8811 2.11884 19.2216 1.56769 21.624 2.25252C22.0936 2.3862 23.2667 2.9746 23.5034 3.45562C23.7156 3.88844 23.355 5.57695 23.3118 6.20152C23.2451 7.17671 23.1418 8.77428 23.3202 9.69579C23.4658 10.4518 24.6079 12.7156 24.3928 13.2646C24.049 14.1412 22.5567 13.2043 21.9255 13.0761C20.4078 12.7693 18.983 13.1342 17.501 13.3621Z" fill="white"/>
<path d="M42.0757 1.90326C44.3091 1.72794 46.9642 3.39345 47.8142 5.87965C48.1344 6.8165 47.3756 6.89977 46.8355 7.45531C46.0494 8.26286 45.2586 9.46158 44.8022 10.5617C44.4575 11.3912 44.3354 12.3455 43.8789 13.1027C43.6733 13.2495 42.6711 12.9504 42.334 12.9328C41.3431 12.8802 40.3222 12.957 39.353 13.1892C38.7876 13.3251 37.963 14.0143 37.6587 13.1279C37.3478 12.2217 37.9489 11.3364 38.1771 10.5025C38.5856 9.00905 38.6899 7.44764 38.5021 5.89718C38.4232 5.24632 38.0954 4.65792 38.286 3.94569C38.5594 2.92448 41.2173 1.9712 42.0757 1.90326Z" fill="white"/>
<path d="M26.8527 16.0265C29.2157 16.1141 31.7215 15.8325 34.0685 15.9991C34.2827 16.0144 35.1927 16.1109 35.2284 16.2862C35.0425 17.2581 34.5494 18.104 34.3409 19.066C34.2564 19.4539 34.3832 19.913 34.1117 20.2242C33.351 20.485 32.6419 20.0171 31.9018 19.9503C30.6433 19.8374 29.3613 20.3042 28.145 20.6165C28.0323 20.611 27.9384 20.6165 27.8623 20.4992C27.7759 20.3656 27.5496 18.8436 27.4453 18.4667C27.249 17.7588 26.9109 17.0137 26.6357 16.3388L26.8518 16.0276L26.8527 16.0265Z" fill="white"/>
</g>
<defs>
<clipPath id="clip0_7471_18666">
<rect width="61.8309" height="55" fill="white"/>
</clipPath>
</defs>
</svg>
