<svg width="239" height="82" viewBox="0 0 239 82" fill="none" xmlns="http://www.w3.org/2000/svg">
<path d="M92.1349 51.288C92.1349 58.0586 87.7865 60.847 82.788 60.847H70.8268C68.6933 60.847 67 58.7455 67 56.2269H72.8723V24.6224C72.8723 22.6272 74.2201 21 75.8727 21H76.699V21.9485C76.699 23.4695 77.3086 25.203 78.5684 27.3045C79.8282 29.3488 81.5689 31.5076 83.3976 33.7072C85.4431 36.2258 87.5292 38.8506 89.1818 41.6308C91.1799 44.9916 92.1416 48.1398 92.1416 51.288H92.1349ZM88.3081 51.288C88.3081 46.4062 84.3932 41.5736 80.6545 36.9535C79.3067 35.2772 77.9114 33.5927 76.699 31.8592V56.2188H82.788C85.6124 56.2188 88.3081 55.3274 88.3081 51.2798V51.288Z" fill="white"/>
<path d="M143.841 56.3795C143.841 58.849 142.148 60.8442 140.143 60.8442H138.531C135.876 60.8442 133.749 58.2193 133.749 55.0711V48.4559C133.749 47.0412 132.794 45.9373 131.663 45.9373H130.187C129.015 45.9373 128.1 47.0412 128.1 48.4559V60.8442H127.01C125.574 60.8442 124.402 59.4296 124.402 57.696V48.4559C124.402 44.5718 126.969 41.4727 130.187 41.4727H131.663C134.84 41.4727 137.447 44.5718 137.447 48.4559V55.0711C137.447 55.758 137.928 56.3877 138.538 56.3877H143.841V56.3795Z" fill="white"/>
<path d="M165.107 52.6528C165.107 60.74 160.108 64.4687 153.884 64.4687C150.45 64.4687 147.232 63.0541 144.618 60.4783C144.313 60.1594 144.049 59.8487 143.792 59.587C142.532 58.1151 142.789 55.5966 144.313 54.5499L144.964 54.1329V54.0838C144.964 54.1329 145.702 55.6047 147.178 57.0276C147.442 57.2892 147.7 57.5018 147.964 57.7144V45.8985H146.962C145.526 45.8985 144.354 44.4839 144.354 42.7504V41.8018H147.964V24.1638C147.964 22.4303 149.136 21.0156 150.572 21.0156H151.791V21.4899C151.791 24.957 153.484 26.4289 156.315 28.5794C159.228 30.8936 161.883 33.0441 161.883 37.7133C161.883 39.7575 161.32 41.5483 160.23 43.0693C163.407 44.7456 165.1 48.6379 165.1 52.6773L165.107 52.6528ZM151.798 41.7854H155.36C156.403 41.1558 158.056 39.8393 158.056 37.6887C158.056 35.5382 156.667 34.3279 154.27 32.4881C153.484 31.8585 152.617 31.1716 151.791 30.4438V41.7854H151.798ZM161.28 52.6528C161.28 49.5046 159.499 45.8822 154.493 45.8822H151.798V59.587C152.448 59.7424 153.145 59.8487 153.884 59.8487C157.927 59.8487 161.28 58.066 161.28 52.6528Z" fill="white"/>
<path d="M173.63 60.8472C170.413 60.8472 167.846 57.699 167.846 53.864V41.9418H168.936C170.372 41.9418 171.544 43.3564 171.544 45.0899V53.8558C171.544 55.2214 172.458 56.3743 173.63 56.3743H177.633V41.9336H178.723C180.159 41.9336 181.331 43.3482 181.331 45.0818V56.3662H188.463C188.463 58.8356 186.81 60.8309 184.765 60.8309H181.331C181.155 73.2192 174.985 81.1509 164.243 81.1509C157.07 81.1509 151.543 77.3731 149.545 69.0243C149.112 67.0291 150.371 65.0339 152.065 65.0339H152.715C152.715 65.083 152.755 68.0758 154.239 71.0195C156.108 74.7483 159.461 76.6863 164.243 76.6863C172.682 76.6863 177.416 71.0686 177.64 60.8309H173.637L173.63 60.8472Z" fill="white"/>
<path d="M192.553 56.3802H201.378C201.378 58.8497 199.725 60.845 197.68 60.845H192.546C189.891 60.845 187.764 58.2201 187.764 55.0719V45.6764C186.328 45.6274 185.197 44.2618 185.197 42.5282V41.4816H187.764V31.0312H188.855C190.291 31.0312 191.462 32.4459 191.462 34.1794V41.4734H194.727C196.163 41.4734 197.335 42.888 197.335 44.6216V45.6682H191.462V55.0637C191.462 55.7506 191.943 56.3802 192.553 56.3802Z" fill="white"/>
<path d="M232.509 56.3829H238.727C238.727 58.8524 237.074 60.8476 235.029 60.8476H214.893V56.3829H228.811V55.3853C228.811 54.2323 228.073 53.341 227.118 53.341H217.114C215.895 53.341 214.899 52.1308 214.899 50.6589V50.2419L224.165 42.261C224.863 41.6805 225.689 41.3125 226.556 41.3125C226.901 41.3125 227.253 41.4188 227.599 41.5251L230.471 42.4737L222.384 48.8763H227.125C230.125 48.8763 232.516 51.8201 232.516 55.3853V56.3829H232.509Z" fill="white"/>
<path d="M99.1049 56.3785H109.718C109.84 62.634 102.2 60.4998 99.1049 60.8432C95.8403 60.8432 93.3613 58.799 93.3613 54.5959C93.5442 48.6921 98.9762 43.6631 102.539 40.2615C103.25 43.2379 106.982 49.3544 104.842 52.3881C103.528 55.5117 99.3623 54.4978 97.0594 54.645C97.2355 56.3458 97.5132 56.1414 99.1049 56.3785ZM97.9738 50.8181C101.909 51.0225 103.514 50.949 101.367 46.5088C101.367 46.5088 98.9288 48.8229 97.9738 50.8181Z" fill="white"/>
<path d="M95.6229 34.9107L98.366 38.1652L101.062 34.9107L98.366 31.6562L95.6229 34.9107Z" fill="white"/>
<path d="M104.059 31.6562L101.363 34.9107L104.059 38.1652L106.795 34.9107L104.059 31.6562Z" fill="white"/>
<path d="M114.408 56.3785H125.021C125.143 62.634 117.503 60.4998 114.408 60.8432C111.143 60.8432 108.664 58.799 108.664 54.5959C108.847 48.6921 114.279 43.6631 117.842 40.2615C118.553 43.2379 122.285 49.3544 120.144 52.3881C118.83 55.5117 114.665 54.4978 112.362 54.645C112.538 56.3458 112.816 56.1414 114.408 56.3785ZM113.277 50.8181C117.212 51.0225 118.817 50.949 116.67 46.5088C116.67 46.5088 114.232 48.8229 113.277 50.8181Z" fill="white"/>
<path d="M110.928 34.9107L113.664 38.1652L116.36 34.9107L113.664 31.6562L110.928 34.9107Z" fill="white"/>
<path d="M119.365 31.6562L116.662 34.9107L119.365 38.1652L122.101 34.9107L119.365 31.6562Z" fill="white"/>
<path d="M205.591 56.3785H216.205C216.327 62.634 208.687 60.4998 205.591 60.8432C202.327 60.8432 199.848 58.799 199.848 54.5959C200.031 48.6921 205.463 43.6631 209.025 40.2615C209.736 43.2379 213.468 49.3544 211.328 52.3881C210.014 55.5117 205.849 54.4978 203.546 54.645C203.722 56.3458 204 56.1414 205.591 56.3785ZM204.46 50.8181C208.395 51.0225 210 50.949 207.853 46.5088C207.853 46.5088 205.415 48.8229 204.46 50.8181Z" fill="white"/>
<path d="M202.119 34.9107L204.862 38.1652L207.558 34.9107L204.862 31.6562L202.119 34.9107Z" fill="white"/>
<path d="M210.555 31.6562L207.859 34.9107L210.555 38.1652L213.298 34.9107L210.555 31.6562Z" fill="white"/>
<path d="M48.002 75H3.00195V28.8974H6.86335V23.6238C6.86335 23.3199 7.10876 23.0729 7.40901 23.0729H11.5054V20.9857C11.5054 17.5061 14.1762 15.9727 18.5363 13.7633C20.8678 12.58 23.5099 11.2419 25.3296 9.1927L25.4993 9L25.669 9.1927C27.4914 11.2419 30.1309 12.58 32.4624 13.7633C36.8224 15.9754 39.4933 17.5061 39.4959 20.9884V23.0729H43.5871C43.8899 23.0729 44.1379 23.3199 44.1379 23.6238V28.8974H47.9993V75H48.002ZM3.46146 74.5359H47.5424V29.3616H43.6811V23.6238C43.6811 23.575 43.6393 23.537 43.5897 23.537H39.0416V20.9884C39.0416 17.7803 36.4648 16.3119 32.2614 14.1786C29.9638 13.0142 27.3713 11.6979 25.502 9.68939C23.6326 11.6979 21.0401 13.0115 18.7426 14.1786C14.5391 16.3092 11.9649 17.7803 11.9649 20.9884V23.5397H7.41162C7.36462 23.5397 7.32546 23.5804 7.32546 23.6266V29.3643H3.46407V74.5386L3.46146 74.5359Z" fill="white"/>
<path d="M20.3279 73.052C22.5522 73.2535 24.7738 72.6462 26.6573 71.3605C33.9826 66.3543 41.2761 65.2588 44.6363 64.8672C30.5167 64.9154 20.1272 73.0321 20.1272 73.0321C20.1272 73.0321 20.1985 73.0406 20.3279 73.052Z" fill="white"/>
<path d="M24.9513 58.4727C24.7086 58.4727 24.5137 58.6075 24.5137 58.7755V59.3863H25.389V58.7755C25.389 58.6075 25.1941 58.4727 24.9513 58.4727Z" fill="white"/>
<path d="M26.2559 58.7755V59.3863H27.1312V58.7755C27.1312 58.6075 26.9363 58.4727 26.6935 58.4727C26.4508 58.4727 26.2559 58.6075 26.2559 58.7755Z" fill="white"/>
<path d="M28.8848 58.7755V59.3863H29.7601V58.7755C29.7601 58.6075 29.5652 58.4727 29.3224 58.4727C29.0797 58.4727 28.8848 58.6075 28.8848 58.7755Z" fill="white"/>
<path d="M30.6289 58.7755V59.3863H31.5042V58.7755C31.5042 58.6075 31.3093 58.4727 31.0666 58.4727C30.8238 58.4727 30.6289 58.6075 30.6289 58.7755Z" fill="white"/>
<path d="M33.2676 58.7755V59.3863H34.1429V58.7755C34.1429 58.6075 33.948 58.4727 33.7052 58.4727C33.4625 58.4727 33.2676 58.6075 33.2676 58.7755Z" fill="white"/>
<path d="M38.8226 45.9816C39.0734 45.9816 39.1389 46.0938 39.1389 46.3128V50.2479C39.1389 50.2479 39.7715 50.2452 39.9678 50.2452C40.1641 50.2452 40.2623 50.2185 40.2623 50.1517V49.791C40.2623 49.6655 40.2705 49.5212 40.1314 49.5212H39.8342V46.3208C39.8342 45.7518 39.5724 45.6797 39.387 45.6797H38.5117C38.5117 45.6797 38.5744 45.9816 38.8253 45.9816H38.8226Z" fill="white"/>
<path d="M39.0633 56.7728C39.0633 56.7728 39.1229 56.7728 39.2291 56.7673C39.3534 56.7618 39.387 56.621 39.387 56.5134V51.9066C39.387 51.7299 39.2109 51.6802 39.1462 51.6802H39.0141V51.1723L38.5117 51.1641V57.5595L39.0633 57.4795V56.7756V56.7728Z" fill="white"/>
<path d="M39.8072 58.4878C40.1958 58.505 40.2624 58.2425 40.2624 57.9696C40.2624 57.6968 40.0488 57.5586 39.8212 57.5586H38.5117V59.3859H39.8072V58.4843V58.4878Z" fill="white"/>
<path d="M38.0436 45.2122V45.6871H38.514V45.0409C38.514 44.8576 38.4097 44.7734 38.3054 44.7734H37.6387C37.6591 45.1521 38.0436 45.104 38.0436 45.2122Z" fill="white"/>
<path d="M38.0485 43.6042V43.855C38.0485 43.855 38.1096 43.8411 38.5072 43.8112C38.5592 43.3554 38.3054 43.3594 38.0118 43.3415C37.9995 43.019 37.6387 42.9414 37.6387 42.9414L37.6448 43.5047C37.6448 43.5047 38.0515 43.5226 38.0515 43.6082L38.0485 43.6042Z" fill="white"/>
<path d="M40.216 66.7786C40.1396 66.6813 39.9947 66.6634 39.8945 66.7351C33.5443 71.3115 26.3929 73.0785 20.127 74.0005H22.8357C28.4772 72.9659 34.6167 71.0887 40.1686 67.086C40.2687 67.0142 40.2898 66.876 40.2134 66.7786H40.216Z" fill="white"/>
<path d="M50.7663 77.6589H0V24.1793H3.89154V21.5243C3.89154 19.6549 5.35186 18.1358 7.14897 18.1358H8.59086C8.92239 13.0695 13.1034 10.8853 17.1475 8.77231C21.0601 6.72772 24.7569 4.79809 24.7569 0.410561V0H26.0094V0.410561C26.0094 4.79809 29.7036 6.72772 33.6188 8.77231C37.663 10.8853 41.8439 13.0695 42.1781 18.1358H43.6147C45.4145 18.1358 46.8774 19.6576 46.8774 21.5243V24.1793H50.769V77.6589H50.7663ZM1.25245 76.3561H49.5139V25.4821H45.6223V21.5243C45.6223 20.3748 44.7198 19.4359 43.6121 19.4359H40.9467V18.7845C40.9467 14.0549 36.9341 11.961 33.0557 9.93557C29.9299 8.30427 26.7119 6.62097 25.3832 3.55545C24.0544 6.62097 20.8338 8.30154 17.7106 9.93283C13.8322 11.9583 9.82226 14.0549 9.82226 18.7818V19.4332H7.1516C6.04649 19.4332 5.14662 20.3693 5.14662 21.5216V25.4794H1.25508V76.3561H1.25245Z" fill="white"/>
<mask id="path-30-inside-1_6680_3203" fill="white">
<path d="M47.9973 75H3V28.8985H6.86171V23.626C6.86171 23.3205 7.1069 23.0729 7.40805 23.0729H11.5043V20.987C11.5043 17.5059 14.1774 15.9759 18.5348 13.7634C20.8667 12.5801 23.5078 11.24 25.3281 9.19263L25.4987 9L25.6692 9.19263C27.4895 11.24 30.1306 12.5801 32.4625 13.7634C36.8226 15.9759 39.493 17.5059 39.4957 20.987V23.0729H43.5866C43.8904 23.0729 44.1383 23.3205 44.1383 23.626V28.8985H48V75H47.9973ZM3.46106 74.5377H47.5389V29.3636H43.6772V23.626C43.6772 23.5765 43.6373 23.5379 43.5866 23.5379H39.0373V20.9897C39.0373 17.7811 36.4602 16.3116 32.2573 14.179C29.96 13.0149 27.3669 11.6968 25.4987 9.69071C23.6304 11.6996 21.0346 13.0149 18.74 14.179C14.5372 16.3116 11.9627 17.7811 11.9627 20.987V23.5379H7.40805C7.36008 23.5379 7.32011 23.5765 7.32011 23.626V29.3636H3.45839V74.5377H3.46106Z"/>
</mask>
<path d="M47.9973 75H3V28.8985H6.86171V23.626C6.86171 23.3205 7.1069 23.0729 7.40805 23.0729H11.5043V20.987C11.5043 17.5059 14.1774 15.9759 18.5348 13.7634C20.8667 12.5801 23.5078 11.24 25.3281 9.19263L25.4987 9L25.6692 9.19263C27.4895 11.24 30.1306 12.5801 32.4625 13.7634C36.8226 15.9759 39.493 17.5059 39.4957 20.987V23.0729H43.5866C43.8904 23.0729 44.1383 23.3205 44.1383 23.626V28.8985H48V75H47.9973ZM3.46106 74.5377H47.5389V29.3636H43.6772V23.626C43.6772 23.5765 43.6373 23.5379 43.5866 23.5379H39.0373V20.9897C39.0373 17.7811 36.4602 16.3116 32.2573 14.179C29.96 13.0149 27.3669 11.6968 25.4987 9.69071C23.6304 11.6996 21.0346 13.0149 18.74 14.179C14.5372 16.3116 11.9627 17.7811 11.9627 20.987V23.5379H7.40805C7.36008 23.5379 7.32011 23.5765 7.32011 23.626V29.3636H3.45839V74.5377H3.46106Z" fill="white"/>
<path d="M3 75H-38V116H3V75ZM3 28.8985V-12.1015H-38V28.8985H3ZM6.86171 28.8985V69.8985H47.8617V28.8985H6.86171ZM11.5043 23.0729V64.0729H52.5043V23.0729H11.5043ZM18.5348 13.7634L-0.0177999 -22.7989L-0.0272391 -22.7941L18.5348 13.7634ZM25.3281 9.19263L55.9691 36.4347L55.9966 36.4037L56.0241 36.3727L25.3281 9.19263ZM25.4987 9L56.1945 -18.1802L25.4985 -52.8466L-5.19734 -18.18L25.4987 9ZM25.6692 9.19263L-5.02663 36.3728L-4.99923 36.4038L-4.97176 36.4347L25.6692 9.19263ZM32.4625 13.7634L51.0156 -22.7987L51.0151 -22.7989L32.4625 13.7634ZM39.4957 20.987H80.4957V20.9713L80.4957 20.9556L39.4957 20.987ZM39.4957 23.0729H-1.50429V64.0729H39.4957V23.0729ZM44.1383 28.8985H3.13829V69.8985H44.1383V28.8985ZM48 28.8985H89V-12.1015H48V28.8985ZM48 75V116H89V75H48ZM47.5389 74.5377V115.538H88.5389V74.5377H47.5389ZM47.5389 29.3636H88.5389V-11.6364H47.5389V29.3636ZM43.6772 29.3636H2.67723V70.3636H43.6772V29.3636ZM39.0373 23.5379H-1.96268V64.5379H39.0373V23.5379ZM32.2573 14.179L50.8102 -22.3832L50.7994 -22.3887L50.7886 -22.3941L32.2573 14.179ZM25.4987 9.69071L55.5027 -18.2514L25.4781 -50.4915L-4.52443 -18.2309L25.4987 9.69071ZM18.74 14.179L0.191597 -22.3855L0.187086 -22.3832L18.74 14.179ZM11.9627 23.5379V64.5379H52.9627V23.5379H11.9627ZM7.32011 29.3636V70.3636H48.3201V29.3636H7.32011ZM3.45839 29.3636V-11.6364H-37.5416V29.3636H3.45839ZM3.45839 74.5377H-37.5416V115.538H3.45839V74.5377ZM47.9973 34H3V116H47.9973V34ZM44 75V28.8985H-38V75H44ZM3 69.8985H6.86171V-12.1015H3V69.8985ZM47.8617 28.8985V23.626H-34.1383V28.8985H47.8617ZM47.8617 23.626C47.8617 45.5136 30.1986 64.0729 7.40805 64.0729V-17.9271C-15.9848 -17.9271 -34.1383 1.12748 -34.1383 23.626H47.8617ZM7.40805 64.0729H11.5043V-17.9271H7.40805V64.0729ZM52.5043 23.0729V20.987H-29.4957V23.0729H52.5043ZM52.5043 20.987C52.5043 25.6096 51.5592 30.983 48.9898 36.3648C46.4955 41.5896 43.2612 45.1662 40.8483 47.3428C38.6089 49.363 36.7701 50.4488 36.4192 50.6556C36.0594 50.8677 36.0147 50.8704 37.0968 50.3209L-0.0272391 -22.7941C-1.14134 -22.2284 -8.08578 -18.9487 -14.0773 -13.5438C-22.6726 -5.79001 -29.4957 6.07398 -29.4957 20.987H52.5043ZM37.0874 50.3257C37.952 49.887 48.0732 45.3157 55.9691 36.4347L-5.31289 -18.0494C-2.73631 -20.9475 -0.375988 -22.4839 0.355166 -22.942C0.783913 -23.2106 1.0287 -23.338 0.941138 -23.291C0.815989 -23.2239 0.626876 -23.126 -0.0177991 -22.7989L37.0874 50.3257ZM56.0241 36.3727L56.1947 36.18L-5.19734 -18.18L-5.36791 -17.9874L56.0241 36.3727ZM-5.19719 36.1802L-5.02663 36.3728L56.3651 -17.9876L56.1945 -18.1802L-5.19719 36.1802ZM-4.97176 36.4347C2.92412 45.3157 13.0454 49.887 13.9099 50.3257L51.0151 -22.7989C50.3705 -23.126 50.1813 -23.2239 50.0562 -23.291C49.9686 -23.338 50.2134 -23.2106 50.6422 -22.942C51.3733 -22.4839 53.7336 -20.9475 56.3102 -18.0494L-4.97176 36.4347ZM13.9095 50.3255C14.9895 50.8735 14.944 50.8706 14.5823 50.6574C14.2296 50.4495 12.3902 49.3634 10.1503 47.3428C7.73692 45.1656 4.50547 41.5913 2.0126 36.3724C-0.55471 30.9976 -1.50075 25.6325 -1.50428 21.0184L80.4957 20.9556C80.4843 6.06394 73.6718 -5.78955 65.076 -13.5438C59.082 -18.951 52.1376 -22.2293 51.0156 -22.7987L13.9095 50.3255ZM-1.50429 20.987V23.0729H80.4957V20.987H-1.50429ZM39.4957 64.0729H43.5866V-17.9271H39.4957V64.0729ZM43.5866 64.0729C21.1857 64.0729 3.13829 45.9031 3.13829 23.626H85.1383C85.1383 0.738026 66.5952 -17.9271 43.5866 -17.9271V64.0729ZM3.13829 23.626V28.8985H85.1383V23.626H3.13829ZM44.1383 69.8985H48V-12.1015H44.1383V69.8985ZM7 28.8985V75H89V28.8985H7ZM48 34H47.9973V116H48V34ZM3.46106 115.538H47.5389V33.5377H3.46106V115.538ZM88.5389 74.5377V29.3636H6.53894V74.5377H88.5389ZM47.5389 -11.6364H43.6772V70.3636H47.5389V-11.6364ZM84.6772 29.3636V23.626H2.67723V29.3636H84.6772ZM84.6772 23.626C84.6772 -0.26033 65.0691 -17.4621 43.5866 -17.4621V64.5379C22.2054 64.5379 2.67723 47.4133 2.67723 23.626H84.6772ZM43.5866 -17.4621H39.0373V64.5379H43.5866V-17.4621ZM80.0373 23.5379V20.9897H-1.96268V23.5379H80.0373ZM80.0373 20.9897C80.0373 5.60026 72.7031 -6.17067 64.3941 -13.5234C58.5714 -18.676 51.8675 -21.8467 50.8102 -22.3832L13.7044 50.7411C14.7461 51.2697 14.708 51.2689 14.3644 51.0676C14.039 50.877 12.2497 49.8293 10.0527 47.8851C7.7045 45.8072 4.40143 42.2798 1.80636 37.0243C-0.895032 31.5533 -1.96268 25.964 -1.96268 20.9897H80.0373ZM50.7886 -22.3941C50.1669 -22.7092 49.9706 -22.8106 49.8404 -22.8803C49.745 -22.9313 49.9579 -22.8213 50.3438 -22.5816C51.015 -22.1649 53.1301 -20.799 55.5027 -18.2514L-4.50533 37.6328C3.17733 45.8824 12.6567 50.2102 13.726 50.752L50.7886 -22.3941ZM-4.52443 -18.2309C-2.13786 -20.797 -0.00751138 -22.1711 0.664344 -22.5879C1.05084 -22.8277 1.26308 -22.9373 1.16285 -22.8837C1.02472 -22.8098 0.827882 -22.7082 0.191597 -22.3855L37.2884 50.7434C38.2906 50.235 47.8237 45.8897 55.5218 37.6123L-4.52443 -18.2309ZM0.187086 -22.3832C-0.87447 -21.8445 -7.57664 -18.6741 -13.399 -13.5206C-21.7062 -6.16765 -29.0373 5.60159 -29.0373 20.987H52.9627C52.9627 25.9609 51.8953 31.5497 49.1946 37.0203C46.6002 42.2756 43.2978 45.8032 40.9496 47.8816C38.7526 49.8263 36.963 50.8744 36.6366 51.0657C36.2918 51.2677 36.2532 51.2687 37.2929 50.7411L0.187086 -22.3832ZM-29.0373 20.987V23.5379H52.9627V20.987H-29.0373ZM11.9627 -17.4621H7.40805V64.5379H11.9627V-17.4621ZM7.40805 -17.4621C-14.8754 -17.4621 -33.6799 0.526761 -33.6799 23.626H48.3201C48.3201 46.6262 29.5956 64.5379 7.40805 64.5379V-17.4621ZM-33.6799 23.626V29.3636H48.3201V23.626H-33.6799ZM7.32011 -11.6364H3.45839V70.3636H7.32011V-11.6364ZM-37.5416 29.3636V74.5377H44.4584V29.3636H-37.5416ZM3.45839 115.538H3.46106V33.5377H3.45839V115.538Z" fill="white" mask="url(#path-30-inside-1_6680_3203)"/>
<path d="M7.63904 74.1135H8.10574C7.96973 72.0946 7.66838 68.9733 7.00167 64.9272C5.64425 56.6957 8.00174 50.1641 9.07647 47.7386C9.82319 46.0524 10.5139 45.2257 11.1139 44.8574C11.65 45.7578 12.4127 46.0606 13.0981 46.3307C13.7568 46.5899 14.2795 46.7973 14.5275 47.4603C14.7702 48.1096 14.9702 48.4725 15.2662 48.4043C15.5142 48.347 15.5649 48.0359 15.5809 47.7058C15.5969 47.373 15.5756 46.9801 15.5542 46.7072C15.4556 45.4686 13.5674 44.5 12.666 44.2244C12.194 44.0798 11.7486 44.0826 11.322 44.2354C11.0579 43.6215 10.9433 43.1386 10.9033 42.7866C11.0659 42.6284 11.1539 42.4074 11.1539 42.1454C11.1539 41.8835 11.0793 41.7253 10.9326 41.6652C10.8233 41.6189 10.7006 41.6489 10.6099 41.7444C10.5006 41.859 10.4152 42.1291 10.4232 42.5383C10.3272 42.5738 10.2259 42.5847 10.1539 42.5874C9.88453 42.3937 8.63644 41.4306 7.65238 39.6272C9.4845 36.1894 12.8181 34.0013 13.5221 33.5675C14.0315 33.9795 15.9969 35.5756 17.2663 36.847C17.181 37.0079 17.0743 37.1689 16.957 37.3326C16.1969 37.6273 15.2876 38.1811 14.8475 38.4622C13.6448 39.2316 12.6047 40.0637 12.1327 40.6367C11.9993 40.7976 11.8767 40.9859 11.9593 41.1687C11.9833 41.2205 12.058 41.3406 12.25 41.3433H12.2527C12.7007 41.3433 13.9355 40.6066 14.9275 39.8754C15.5542 39.4144 16.5516 38.6122 17.237 37.731C17.6157 37.5973 17.8024 37.5918 17.8531 37.6218C18.3944 38.173 18.6718 38.6586 18.4984 39.4962C18.3384 40.2711 18.7864 40.9531 19.0851 41.4061C19.1891 41.5643 19.2958 41.7253 19.3118 41.8017C19.3198 41.8426 19.2318 41.9435 19.0451 42.1072C18.8825 42.2491 18.7304 42.3855 18.7384 42.5765C18.7438 42.6775 18.7944 42.7675 18.8825 42.8303C18.9358 42.8685 18.9998 42.9312 19.0105 43.0212C19.0238 43.1249 18.9571 43.2259 18.8985 43.2968L18.7731 43.4441L18.8931 43.5969C18.9536 43.6733 18.9651 43.7515 18.9278 43.8316C18.8638 43.9734 18.7651 44.1835 18.8158 44.56C18.8425 44.7647 18.8825 44.9229 18.9171 45.062C19.0025 45.3949 19.0691 45.6568 18.9331 46.4699C18.8931 46.71 18.5331 46.9719 18.1117 47.0728C17.9597 47.1083 17.4504 47.1983 17.2157 46.8628C16.717 46.1561 16.3516 45.8887 16.0316 45.9979C15.6422 46.1316 15.6396 46.7536 15.6422 46.8764V47.021L15.7702 47.0838C15.7809 47.0892 16.8103 47.6513 16.7703 49.924C16.741 51.5637 17.205 52.8979 17.613 54.0765C17.8237 54.6877 18.0237 55.2634 18.1171 55.7899C18.1117 55.91 18.1011 56.0273 18.0851 56.1392C16.877 57.4379 15.7329 58.6411 15.0475 59.2276C14.8129 59.4295 14.5888 59.6669 14.7008 59.9043C14.7515 60.0107 14.8795 60.1253 15.1862 60.0598C15.6422 59.9616 16.4663 59.5059 17.157 58.8184C17.6877 58.2918 18.3144 57.4624 18.5171 56.3602C18.7971 56.0573 19.0798 55.7517 19.3625 55.4489C20.3119 54.423 21.2933 53.3617 22.064 52.5787C23.5734 53.831 24.2535 56.2756 24.4775 57.2605C24.5068 57.3942 24.5308 57.5033 24.5442 57.577H23.7174C23.5681 57.577 23.4454 57.6998 23.4454 57.8526C23.4454 58.0053 23.5681 58.1281 23.7174 58.1281H23.7868V59.4623H18.8691C18.5411 59.4623 18.2744 59.7324 18.2744 60.068V60.6355C18.2744 60.9711 18.5411 61.2412 18.8691 61.2412H19.4238V71.6553C20.6052 70.875 23.2241 69.2653 26.835 67.7674V64.9626C26.835 63.915 27.667 63.0637 28.6964 63.0637C29.7232 63.0637 30.5579 63.9122 30.5579 64.9626V66.4032C33.6354 65.4237 37.169 64.6598 40.9906 64.4797V61.2439H41.3506C41.7186 61.2439 42.0173 60.9383 42.0173 60.5618V60.1444C42.0173 59.7679 41.7186 59.4623 41.3506 59.4623H39.8332V59.0421C40.0385 59.0421 40.2065 58.873 40.2065 58.6629V58.1199C40.2065 57.9099 40.0385 57.7407 39.8332 57.7407H37.825L39.4972 57.5852V56.9549C39.6838 56.9549 39.8332 56.8021 39.8332 56.6112V51.8911C39.8332 51.7001 39.6812 51.5473 39.4972 51.5473V51.0399L37.873 50.9062H39.8358C40.0412 50.9062 40.2092 50.737 40.2092 50.5269V49.984C40.2092 49.7739 40.0412 49.6048 39.8358 49.6048V46.3853C39.8358 46.047 39.5665 45.7714 39.2358 45.7714H37.6544L39.2145 45.6868V44.8929C39.2145 44.6801 39.0465 44.5082 38.8384 44.5082H37.6997L38.6118 44.4236V43.9325C38.6118 43.7197 38.4437 43.5478 38.2357 43.5478H38.1557C38.1317 43.2941 37.961 43.084 37.7344 43.0049L37.5397 39.3925L37.3263 43.0049C37.097 43.084 36.929 43.2941 36.905 43.5478H36.825C36.617 43.5478 36.4489 43.7197 36.4489 43.9325V44.5082H36.2223C36.0143 44.5082 35.8462 44.6801 35.8462 44.8929V45.7741H35.8276C35.4942 45.7741 35.2275 46.0497 35.2275 46.388V49.6075C35.0222 49.6075 34.8542 49.7766 34.8542 49.9867V50.5297C34.8542 50.7397 35.0222 50.9089 35.2275 50.9089H35.5636V51.5501C35.3769 51.5501 35.2275 51.7029 35.2275 51.8938V56.0628C35.5342 56.3765 35.7769 56.8021 35.9049 57.135C36.1529 57.1432 36.849 57.1459 37.0463 57.1514C37.7824 57.1677 37.769 58.3164 37.1823 58.3628L37.209 59.4677H36.633V58.1336H36.6943C36.8436 58.1336 36.9663 58.0108 36.9663 57.858C36.9663 57.7052 36.8436 57.5825 36.6943 57.5825H35.4996C35.4836 57.5443 35.4676 57.5033 35.4515 57.4679H35.4409V57.4406C35.4169 57.3887 35.3929 57.3369 35.3662 57.2851C35.3049 57.1623 35.2409 57.0422 35.1715 56.9222C35.0115 56.6439 34.8302 56.382 34.6275 56.1364C34.6062 56.1091 34.5822 56.0819 34.5582 56.0546C34.4328 55.9072 34.2995 55.7626 34.1608 55.629C34.0781 55.5471 33.9901 55.4707 33.9021 55.3943C33.0967 54.6986 32.102 54.2211 31.0113 54.0492C30.9606 53.6182 30.6432 53.2689 30.2299 53.1844V51.6756C30.2859 51.681 30.3419 51.6838 30.3979 51.6838C30.8379 51.6838 31.2379 51.5146 31.542 51.239C31.3046 51.3263 31.0379 51.3591 30.7606 51.3045C30.1125 51.1763 29.6165 50.6197 29.5632 49.9485C29.4938 49.0591 30.1792 48.3142 31.0379 48.3142C31.0673 48.3142 31.0939 48.317 31.1233 48.3197C30.8566 48.1942 30.5579 48.1342 30.2405 48.1615C29.4005 48.2406 28.7284 48.9363 28.6698 49.793C28.6138 50.6006 29.0911 51.3018 29.7792 51.5692V53.198C29.3871 53.3044 29.0885 53.6509 29.0511 54.0765C27.2643 54.4094 25.7602 55.5662 24.9335 57.1486C24.8188 56.6248 24.5815 55.7326 24.1735 54.7995C24.1868 54.7422 24.4722 53.4872 25.3469 53.1434C26.3549 52.7451 26.9443 51.7738 27.2537 49.9894C27.3443 49.4629 27.5577 48.9745 27.7284 48.5816C27.9551 48.0578 28.1177 47.6813 27.9257 47.4057C27.7657 47.1765 27.4457 47.1738 27.2217 47.1929C26.4216 47.2611 25.9523 48.437 25.5389 49.4765C25.3735 49.8912 25.1282 50.5078 24.9815 50.6197C24.8428 50.5187 24.8722 50.3196 24.9922 49.9049C25.0909 49.5584 25.2269 49.0836 24.8242 48.879C24.7175 48.8244 24.5415 48.789 24.3095 48.9254C23.7174 49.2774 22.9334 50.7698 22.8881 51.6319C22.864 52.0903 22.752 52.3522 22.6614 52.4886C22.512 52.3413 22.352 52.2021 22.184 52.0766L22.024 51.9566L21.8827 52.0985C21.0853 52.9006 20.0852 53.981 19.0238 55.1269C18.8691 55.2934 18.7144 55.4625 18.5598 55.629C18.4558 55.0887 18.2584 54.5212 18.0531 53.921C17.6584 52.7806 17.2103 51.4873 17.237 49.9349C17.2743 47.8122 16.445 46.991 16.1116 46.7454C16.1223 46.6199 16.1516 46.4972 16.1809 46.4562C16.2263 46.4699 16.4236 46.5545 16.837 47.1438C17.109 47.5312 17.6237 47.6785 18.2157 47.5394C18.7224 47.4193 19.3065 47.0619 19.3892 46.5545C19.5412 45.6377 19.4558 45.3021 19.3652 44.9475C19.3305 44.8165 19.2958 44.6801 19.2745 44.5027C19.2425 44.2626 19.2931 44.1535 19.3465 44.0362C19.4238 43.867 19.4798 43.6951 19.3545 43.4605C19.4718 43.2641 19.4852 43.0894 19.4692 42.9667C19.4505 42.8112 19.3785 42.6638 19.2638 42.5465C19.2905 42.5219 19.3225 42.4947 19.3465 42.4728C19.5545 42.29 19.8399 42.039 19.7625 41.7007C19.7252 41.5397 19.6132 41.3679 19.4692 41.1469C19.1998 40.7376 18.8318 40.1783 18.9518 39.5999C19.1678 38.5577 18.7998 37.9219 18.1784 37.289C18.0744 37.1826 17.9197 37.1335 17.7224 37.1416C17.6957 37.1416 17.6664 37.1444 17.637 37.1498C17.6824 37.0707 17.725 36.9888 17.7624 36.9097L17.8344 36.7569L17.717 36.6369C16.2476 35.139 13.7088 33.1173 13.6848 33.0982L13.5621 33L13.4261 33.0764C13.3834 33.1009 12.3754 33.6821 11.0979 34.768C9.91653 35.772 8.27909 37.4117 7.18301 39.518L7.12434 39.6299L7.18301 39.7418C8.35643 41.9545 9.88986 42.9803 9.95386 43.024L10.0045 43.0567L10.0632 43.0622C10.0925 43.0622 10.2659 43.0731 10.4659 43.0212C10.5299 43.4141 10.6632 43.8889 10.9006 44.4373C10.8819 44.4482 10.8659 44.4591 10.8473 44.47C10.0659 44.9693 9.34849 45.9733 8.65244 47.5421C7.99373 49.0291 7.09501 51.4846 6.55897 54.7204C5.99094 58.1663 5.9856 61.6259 6.54297 65.0036C7.20435 69.0142 7.50303 72.1082 7.63904 74.1108V74.1135ZM12.5327 44.7155C13.3888 44.9775 15.0155 45.856 15.0902 46.7891C15.1222 47.2038 15.1275 47.5121 15.1169 47.7222C15.0742 47.6267 15.0209 47.5012 14.9595 47.3375C14.6368 46.4726 13.9381 46.197 13.2634 45.9297C12.6394 45.6814 11.9967 45.4276 11.5406 44.6992C11.9193 44.5819 12.2527 44.631 12.5327 44.7183V44.7155ZM12.698 40.7349C13.2607 40.1565 14.2928 39.3734 15.3969 38.6941C15.6796 38.5195 15.9329 38.3721 16.1596 38.2493C15.0209 39.3652 13.4741 40.3584 12.698 40.7349ZM16.6023 58.7775C16.2023 59.1322 15.8183 59.3723 15.5249 59.5169C16.1009 58.9957 16.9063 58.1609 17.7837 57.2223C17.4797 57.8935 17.013 58.4119 16.6023 58.7775ZM38.6251 51.2772L39.1425 51.2854V51.7874H39.2785C39.3451 51.7874 39.5265 51.8338 39.5265 52.0112V56.5648C39.5265 56.6712 39.4892 56.8103 39.3638 56.8158C39.2545 56.8212 39.1931 56.8212 39.1931 56.8212V57.517L38.6251 57.5961V51.2745V51.2772ZM39.1105 45.9979C39.2918 45.9979 39.5478 46.0715 39.5478 46.6527V49.9212H39.8385C39.9745 49.9212 39.9665 50.0686 39.9665 50.1968V50.5651C39.9665 50.6333 39.8705 50.6606 39.6785 50.6606C39.4865 50.6606 38.8678 50.6634 38.8678 50.6634V46.6445C38.8678 46.4235 38.8038 46.3062 38.5584 46.3062C38.3131 46.3062 38.2517 45.9979 38.2517 45.9979H39.1078H39.1105ZM38.7158 44.7155C38.8518 44.7155 38.9878 44.7919 38.9878 44.9584V45.545H38.3744V45.1139C38.3744 45.0129 37.8704 45.0593 37.8464 44.7155H38.7158ZM37.9771 43.6842C38.2331 43.7088 38.4544 43.7033 38.4091 44.3281C38.0651 44.369 38.0091 44.3881 38.0091 44.3881V44.0444C38.0091 43.9298 37.6544 43.9025 37.6544 43.9025L37.649 43.1304C37.649 43.1304 37.9637 43.2368 37.9744 43.6788L37.9771 43.6842ZM35.7022 46.5708C35.7022 46.4126 35.8276 46.2816 35.9849 46.2816C36.1423 46.2816 36.2676 46.4099 36.2676 46.5708V49.6566H35.7049V46.5708H35.7022ZM36.3023 56.6794H35.7396V52.445C35.7396 52.2867 35.8649 52.1558 36.0223 52.1558C36.1796 52.1558 36.3049 52.284 36.3049 52.445V56.6794H36.3023ZM21.76 65.2027H20.6906V63.1101C20.6906 62.8073 20.9306 62.5617 21.2266 62.5617C21.5226 62.5617 21.7626 62.8073 21.7626 63.1101V65.2027H21.76ZM23.7121 65.2027H22.6427V63.1101C22.6427 62.8073 22.8827 62.5617 23.1787 62.5617C23.4748 62.5617 23.7148 62.8073 23.7148 63.1101V65.2027H23.7121ZM25.5042 65.2027H24.4348V63.1101C24.4348 62.8073 24.6748 62.5617 24.9709 62.5617C25.2669 62.5617 25.5069 62.8073 25.5069 63.1101V65.2027H25.5042ZM32.8994 65.2027H31.83V63.1101C31.83 62.8073 32.07 62.5617 32.366 62.5617C32.662 62.5617 32.902 62.8073 32.902 63.1101V65.2027H32.8994ZM34.8488 64.949L33.7794 65.2027V63.1101C33.7794 62.8073 34.0195 62.5617 34.3155 62.5617C34.6115 62.5617 34.8515 62.8073 34.8515 63.1101V64.949H34.8488ZM36.6436 64.5916L35.5742 64.8481V63.1101C35.5742 62.8073 35.8142 62.5617 36.1103 62.5617C36.4063 62.5617 36.6463 62.8073 36.6463 63.1101V64.5916H36.6436ZM40.3292 64.1059L38.6278 64.1987V61.6968H20.7279L19.8319 61.2685H40.3265V64.1059H40.3292ZM38.6171 58.0981H39.6145C39.7878 58.0981 39.9505 58.2072 39.9505 58.4228C39.9505 58.6383 39.8998 58.8457 39.6038 58.832V59.5441H38.6171V58.1008V58.0981ZM35.4222 58.7202V59.375H34.7875V58.7202C34.7875 58.5401 34.9288 58.3955 35.1049 58.3955C35.2809 58.3955 35.4222 58.5401 35.4222 58.7202ZM30.8299 54.333C34.1661 54.7968 35.1075 57.7489 35.1075 57.7489H34.1235C33.2541 55.1815 31.0886 54.5485 30.5126 54.5076C30.5126 54.5076 30.5526 53.6918 30.0965 53.4272C30.4779 53.5418 30.7846 53.7055 30.8272 54.3303L30.8299 54.333ZM34.0008 58.7202V59.375H33.3661V58.7202C33.3661 58.5401 33.5074 58.3955 33.6834 58.3955C33.8594 58.3955 34.0008 58.5401 34.0008 58.7202ZM32.5767 58.7202V59.375H31.942V58.7202C31.942 58.5401 32.0833 58.3955 32.2593 58.3955C32.4354 58.3955 32.5767 58.5401 32.5767 58.7202ZM31.1553 58.7202V59.375H30.5206V58.7202C30.5206 58.5401 30.6619 58.3955 30.8379 58.3955C31.0139 58.3955 31.1553 58.5401 31.1553 58.7202ZM29.0965 58.7202C29.0965 58.5401 29.2378 58.3955 29.4138 58.3955C29.5898 58.3955 29.7312 58.5401 29.7312 58.7202V59.375H29.0965V58.7202ZM27.675 58.7202C27.675 58.5401 27.8164 58.3955 27.9924 58.3955C28.1684 58.3955 28.3097 58.5401 28.3097 58.7202V59.375H27.675V58.7202ZM26.2509 58.7202C26.2509 58.5401 26.3923 58.3955 26.5683 58.3955C26.7443 58.3955 26.8856 58.5401 26.8856 58.7202V59.375H26.2509V58.7202ZM41.2119 59.9834C41.4626 59.9834 41.7133 60.0925 41.7133 60.4963H18.7038C18.7038 60.4963 18.6104 59.9834 19.0238 59.9834H41.2119ZM24.8295 58.7202C24.8295 58.5401 24.9709 58.3955 25.1469 58.3955C25.3229 58.3955 25.4642 58.5401 25.4642 58.7202V59.375H24.8295V58.7202ZM23.3494 51.7165C23.3814 51.0808 23.9441 49.9076 24.4242 49.4765C24.5415 49.3701 24.6028 49.3592 24.6135 49.3565C24.6188 49.3592 24.6188 49.3619 24.6188 49.3619C24.6562 49.4165 24.5788 49.6839 24.5388 49.8258C24.4268 50.2132 24.2615 50.7998 24.7602 51.0999C24.8695 51.1654 24.9869 51.179 25.1042 51.1381C25.4242 51.029 25.6269 50.546 25.9629 49.7057C26.2909 48.8817 26.739 47.7522 27.2537 47.7085C27.4457 47.6922 27.5204 47.7167 27.539 47.7249C27.5577 47.8313 27.4084 48.1778 27.2963 48.4343C27.115 48.8517 26.891 49.3701 26.7896 49.9567C26.5096 51.5637 26.0109 52.4259 25.1709 52.7587C24.4535 53.0425 24.0641 53.7518 23.8694 54.2484C23.6241 53.7764 23.3281 53.3126 22.9787 52.9006C23.1281 52.7096 23.3094 52.3522 23.3441 51.7138L23.3494 51.7165Z" fill="white"/>
<path d="M30.1991 54.1282C30.8032 54.1714 33.074 54.8409 33.9857 57.5565H35.0176C35.0176 57.5565 34.0304 54.4312 30.5319 53.9435C30.4871 53.2797 30.1655 53.1095 29.7656 52.9883C30.2438 53.2653 30.2019 54.131 30.2019 54.131L30.1991 54.1282Z" fill="white"/>
<path d="M21.4505 62.1289C21.2082 62.1289 21.0117 62.3837 21.0117 62.698V64.8698H21.887V62.698C21.887 62.3837 21.6906 62.1289 21.4483 62.1289H21.4505Z" fill="white"/>
<path d="M23.1946 62.1289C22.9523 62.1289 22.7559 62.3837 22.7559 62.698V64.8698H23.6312V62.698C23.6312 62.3837 23.4347 62.1289 23.1924 62.1289H23.1946Z" fill="white"/>
<path d="M24.9524 62.1289C24.7101 62.1289 24.5137 62.3837 24.5137 62.698V64.8698H25.389V62.698C25.389 62.3837 25.1925 62.1289 24.9502 62.1289H24.9524Z" fill="white"/>
<path d="M32.3912 62.1289C31.9066 62.1289 31.5137 62.3837 31.5137 62.698V64.8698H33.2643V62.698C33.2643 62.3837 32.8714 62.1289 32.3868 62.1289H32.3912Z" fill="white"/>
<path d="M34.5677 62.1289C34.3254 62.1289 34.1289 62.3837 34.1289 62.698V64.8698L35.0042 64.6065V62.698C35.0042 62.3837 34.8078 62.1289 34.5655 62.1289H34.5677Z" fill="white"/>
<path d="M36.3352 62.1289C36.0929 62.1289 35.8965 62.4233 35.8965 62.7863V64.8698L36.7718 64.5624V62.7863C36.7718 62.4233 36.5754 62.1289 36.3331 62.1289H36.3352Z" fill="white"/>
<path d="M40.2595 61.2109H20.127L21.0046 61.6116H38.5881V63.9518L40.2595 63.8676V61.2109Z" fill="white"/>
</svg>
