<svg width="57" height="57" viewBox="0 0 57 57" fill="none" xmlns="http://www.w3.org/2000/svg">
<g clip-path="url(#clip0_7471_18657)">
<path d="M20.7869 0.180452C25.6694 0.426256 31.1383 -0.290427 35.9544 0.141952C39.0632 0.421814 40.6878 2.74067 40.9034 5.69328C41.1426 8.99388 41.1249 14.0817 40.9108 17.3957C40.5873 22.4198 37.2496 23.446 32.7377 23.1202C31.7999 23.674 29.8519 26.4105 28.985 26.6118C28.4267 26.7422 28.0044 26.6711 27.5391 26.3483C26.4891 25.6183 25.4287 23.985 24.3609 23.1676C21.032 23.2861 17.1981 22.9929 16.3075 19.1C15.7212 16.5427 15.9028 8.7155 16.0875 5.83396C16.2824 2.80878 17.6884 0.70908 20.7869 0.180452ZM22.9963 7.28213C20.9316 7.63011 21.0557 10.411 23.1218 10.639C26.4669 10.3458 30.6288 11.0817 33.8764 10.639C36.0386 10.3443 36.0341 7.55311 33.8764 7.25992C30.6037 6.81273 26.3695 7.53682 22.9963 7.28213ZM23.1484 12.6158C20.9154 12.9416 21.1044 15.5936 22.8486 15.949C23.7199 16.1267 27.6145 16.0985 28.5611 15.9697C30.4131 15.718 30.6923 13.3517 29.1253 12.7639C28.285 12.4485 24.1571 12.4677 23.1484 12.6158Z" fill="white"/>
<path d="M37.2128 57.0037H19.7856V31.6088C19.7856 31.1054 20.8165 30.5382 21.329 30.4908C25.9235 30.0703 31.1502 30.8225 35.8127 30.4938C36.2262 30.3739 37.2128 31.3423 37.2128 31.6073V57.0022V57.0037Z" fill="white"/>
<path d="M12.4014 37.455H14.9859C15.4113 37.455 16.389 38.2946 16.389 38.7137V57.0009H13.6567C13.3496 57.0009 12.4014 56.1673 12.4014 55.8904V46.3395H7.60155C4.53556 46.3395 1.32779 43.6357 0.481537 40.7438C-0.137274 38.6337 -0.0486611 31.6446 0.138902 29.2309C0.478583 24.8538 4.89001 21.9827 8.95732 23.9536C13.9846 26.3909 12.0115 32.9846 12.4029 37.4536L12.4014 37.455Z" fill="white"/>
<path d="M44.5974 46.3381V55.8889C44.5974 56.1658 43.6493 56.9995 43.3421 56.9995H40.6099V38.7122C40.6099 38.2931 41.5876 37.4536 42.0129 37.4536H44.5974C44.9888 32.9846 43.0157 26.3894 48.043 23.9536C52.1103 21.9827 56.5217 24.8538 56.8614 29.2309C57.049 31.6446 57.1361 38.6322 56.5188 40.7438C55.6725 43.6357 52.4633 46.3395 49.3987 46.3395H44.5989L44.5974 46.3381Z" fill="white"/>
<path d="M5.87508 9.95614C13.8428 9.3979 14.6167 21.5578 6.86163 22.2019C-1.31582 22.8816 -2.2817 10.5277 5.87508 9.95614Z" fill="white"/>
<path d="M50.329 9.95628C58.378 9.39508 59.0662 21.592 51.3156 22.2021C43.1159 22.8477 42.2653 10.519 50.329 9.95628Z" fill="white"/>
</g>
<defs>
<clipPath id="clip0_7471_18657">
<rect width="57" height="57" fill="white"/>
</clipPath>
</defs>
</svg>
